<?xml version="1.0" encoding="utf-8"?>
<!-- Generator: Adobe Illustrator 19.0.0, SVG Export Plug-In . SVG Version: 6.00 Build 0)  -->
<svg version="1.1" id="Layer_1" xmlns="http://www.w3.org/2000/svg" xmlns:xlink="http://www.w3.org/1999/xlink" x="0px" y="0px"
	 viewBox="0 0 1011.7 349.3" style="enable-background:new 0 0 1011.7 349.3;" xml:space="preserve">
<style type="text/css">
	.st0{fill:none;}
	.st1{display:none;}
	.st2{fill:#666666;}
	.st3{fill:#0AB0DD;}
	.st4{fill:#313131;}
	.st5{fill:#0395C9;}
</style>
<path id="SVGID_x5F_1_x5F_" class="st0" d="M247.8,163c25.1,25.4,24.9,66.4-0.5,91.5c-25.4,25.1-66.4,24.9-91.5-0.5
	c-25.1-25.4-24.9-66.4,0.5-91.5C181.7,137.4,222.6,137.6,247.8,163z"/>
<text class="st1"><textPath  xlink:href="#SVGID_x5F_1_x5F_" startOffset="81.4453%"  style="display:inline;">
<tspan  style="font-family:'DesignioMedium'; font-size:28.7398px; letter-spacing:180;">Achat Solution</tspan></textPath>
</text>
<g>
	<path class="st2" d="M3,181.3c0,3.1,0.1,6.2,0.3,9.3c0.1,0.9,0.1,1.9,0.2,2.8c0.2,2.2,0.3,4.3,0.6,6.5c0.1,1,0.3,2,0.4,3
		c0.3,2.1,0.6,4.2,0.9,6.2c0.2,1,0.3,1.9,0.5,2.9c0.4,2.2,0.9,4.3,1.3,6.5c0.2,0.8,0.3,1.6,0.5,2.3c0.6,2.5,1.3,5,2,7.4
		c0.1,0.4,0.2,0.8,0.3,1.2c0.8,2.7,1.7,5.3,2.6,7.9c0.3,0.8,0.6,1.6,0.9,2.5c0.7,1.9,1.4,3.7,2.2,5.6c0.3,0.8,0.6,1.5,1,2.3
		c1.1,2.4,2.2,4.8,3.3,7.2c0,0.1,0.1,0.2,0.1,0.2c0,0.1,0.1,0.2,0.1,0.3c1.3,2.6,2.7,5.2,4.1,7.7c0.1,0.2,0.2,0.3,0.3,0.5
		c1.4,2.4,2.8,4.8,4.3,7.1c0.1,0.2,0.2,0.4,0.3,0.5c1.5,2.3,3,4.6,4.6,6.9c0.1,0.1,0.2,0.2,0.2,0.3c1.7,2.3,3.4,4.6,5.2,6.9
		c0,0,0,0,0,0l19-32.9l18.2-31.5L152.2,90L44.9,224.6c0,0,0,0,0,0c-2.3-6.6-4.1-13.5-5.3-20.5c-0.1-0.3-0.1-0.6-0.2-0.9
		c-0.6-3.3-1-6.6-1.3-10c0-0.5-0.1-1.1-0.1-1.6c-0.3-3.4-0.4-6.8-0.4-10.3c0-73.1,59.4-132.5,132.5-132.6V14C77.8,14.1,3,89,3,181.3
		z"/>
	<path class="st2" d="M135.2,268.9l-12.4,36.1l-8.2,24l-3,8.8h0c1.9,0.7,3.8,1.4,5.8,2c0.5,0.2,1,0.4,1.6,0.5c1,0.3,1.9,0.6,2.9,0.9
		c0.8,0.2,1.5,0.4,2.3,0.7c0.8,0.2,1.5,0.4,2.3,0.7c1.6,0.4,3.2,0.8,4.9,1.2c0.3,0.1,0.7,0.2,1,0.3c0.6,0.2,1.3,0.3,1.9,0.4
		c1.2,0.3,2.5,0.5,3.7,0.8c-11.9-5.8-18.2-12.8-18.2-12.8l14.8-20.5c0,0,15.4,14.9,35.6,15.8v-39.9
		C158.4,282.8,144.8,277.6,135.2,268.9z"/>
	<path class="st2" d="M159,199.5c3.5-0.8,7.2-1.2,11-1.4v-30.6L159,199.5z"/>
	<path class="st2" d="M150.3,241c0,9.3,8.6,14.5,19.8,19.5v-37.2C158.8,224.3,150.3,231.2,150.3,241z"/>
	<path class="st3" d="M150.4,112.1L80.5,274.4l-1.4,3.2l-2.4,5.5l-12.1,28c2.9,2.3,5.8,4.6,8.9,6.7c3,2.1,6,4.2,9.2,6.1
		c2.2,1.3,4.4,2.6,6.7,3.9c0.1,0,0.2,0.1,0.2,0.1c1.9,1.1,3.9,2.1,5.9,3.1c0.4,0.2,0.7,0.4,1.1,0.6c-0.4-0.2-0.7-0.4-1.1-0.6
		l2.6-7.5l8.2-24l0.6-1.6l16.6-48.4c-0.5-2.5-0.8-5.1-0.8-8c0-12.4,5.3-23.2,14.1-30.9l16.9-49.3l4.3-12.5l11.9-34.5V66.5
		L150.4,112.1z"/>
	<path class="st3" d="M122.8,241.4c0,2.8,0.3,5.5,0.8,8l13.4-38.9C128.1,218.3,122.8,229.1,122.8,241.4z"/>
	<path class="st4" d="M302.9,181.3c0,3.5-0.2,6.9-0.4,10.3c0,0.5-0.1,1.1-0.1,1.6c-0.3,3.4-0.7,6.7-1.3,10c-0.1,0.3-0.1,0.6-0.2,0.9
		c-1.2,7-3,13.9-5.3,20.5c0,0,0,0,0,0L188.4,90l75.6,130.9l18.2,31.5l19,32.9c0,0,0,0,0,0c1.8-2.2,3.5-4.5,5.2-6.9
		c0.1-0.1,0.2-0.2,0.2-0.3c1.6-2.3,3.2-4.5,4.6-6.9c0.1-0.2,0.2-0.4,0.3-0.5c1.5-2.3,2.9-4.7,4.3-7.1c0.1-0.2,0.2-0.3,0.3-0.5
		c1.4-2.5,2.8-5.1,4.1-7.7c0-0.1,0.1-0.2,0.1-0.3c0-0.1,0.1-0.2,0.1-0.2c1.2-2.4,2.3-4.8,3.3-7.2c0.3-0.8,0.6-1.5,1-2.3
		c0.8-1.8,1.5-3.7,2.2-5.6c0.3-0.8,0.6-1.6,0.9-2.5c0.9-2.6,1.8-5.2,2.6-7.9c0.1-0.4,0.2-0.8,0.3-1.2c0.7-2.4,1.4-4.9,2-7.4
		c0.2-0.8,0.4-1.5,0.5-2.3c0.5-2.2,0.9-4.3,1.3-6.5c0.2-0.9,0.3-1.9,0.5-2.9c0.4-2.1,0.7-4.1,0.9-6.2c0.1-1,0.3-2,0.4-3
		c0.2-2.2,0.4-4.3,0.6-6.5c0.1-0.9,0.2-1.9,0.2-2.8c0.2-3.1,0.3-6.2,0.3-9.3C337.5,88.9,262.6,14,170.3,14c-0.1,0-0.1,0-0.2,0v34.6
		c0.1,0,0.1,0,0.2,0C243.4,48.6,302.9,108.1,302.9,181.3z"/>
	<path class="st4" d="M193.6,309.7c0-10.4-10.6-16-23.6-21.8v39.9c0.6,0,1.2,0.1,1.8,0.1C183.3,327.9,193.6,322,193.6,309.7z"/>
	<path class="st4" d="M181.1,198.3l-10.8-31.5l-0.2,0.6V198c1-0.1,2-0.2,3.1-0.2C175.9,197.9,178.5,198.1,181.1,198.3z"/>
	<path class="st4" d="M190.9,226.9c-5.1-2.2-11.3-3.8-18-3.8c-1,0-1.9,0.1-2.8,0.2v37.2c12.9,5.7,29.1,10.9,39.7,21.4L190.9,226.9z"
		/>
	<path class="st4" d="M220.7,313.5c-1.3,13.4-8.5,25.2-20.6,32.3c0.6-0.1,1.2-0.2,1.8-0.3c1.5-0.3,3-0.6,4.6-0.9
		c0.6-0.1,1.3-0.3,1.9-0.4c0.3-0.1,0.7-0.2,1-0.2c1.6-0.4,3.3-0.8,4.9-1.2c0.8-0.2,1.5-0.4,2.3-0.6c0.8-0.2,1.6-0.4,2.3-0.7
		c1-0.3,2-0.6,2.9-0.9c0.5-0.2,1-0.3,1.5-0.5c2-0.7,3.9-1.3,5.8-2l-3-8.8L220.7,313.5z"/>
	<path class="st5" d="M182.3,148.7l4.3,12.5l14.5,42.1c11.1,4.7,16.8,10.6,16.8,10.6l-8,15l23.7,68.8l0.6,1.7l8.2,24l2.6,7.5v0
		c2-1,4-2,5.9-3.1c0.1,0,0.1-0.1,0.2-0.1c2.3-1.3,4.5-2.6,6.7-3.9c3.1-1.9,6.2-4,9.2-6.1c3-2.1,6-4.4,8.9-6.7l-12.1-28l-2.4-5.5
		l-1.4-3.2l-69.9-162.2L170.3,66l-0.2,0.5v47.7l0.2-0.6L182.3,148.7z"/>
	<path class="st5" d="M201.1,203.3l8.8,25.7l8-15C217.9,213.9,212.2,208,201.1,203.3z"/>
</g>
<g>
	<path class="st2" d="M403.4,234.6c0-4.6,1.4-8,4.4-10.4c4.7-3.9,11.6-5.4,18.7-5.8v-14.8c-10.3,0.6-20.7,3-28.3,9.2
		c-6.4,5.4-9.6,12.6-9.6,21.8c0,21.4,17.4,28.6,34,35.8c1.3,0.5,2.6,1.1,3.8,1.6V256C414.1,250.7,403.4,245.3,403.4,234.6z"/>
	<path class="st2" d="M421.8,320.7c-8.6,0-17.8-1.4-25.8-3.8c-4-1.2-8,0.8-9,4.8c-1.2,3.8,0.8,7.8,4.6,9c8.8,2.8,20.2,4.8,30.2,4.8
		c1.5,0,3.1-0.1,4.6-0.1v-14.9C424.9,320.6,423.4,320.7,421.8,320.7z"/>
	<path class="st2" d="M497.5,302.3v-23c0-16.4,9.2-18.8,19.4-18.8V246c-8.4,0-33.6,0-33.6,33.2v23c0,33.2,25.2,33.2,33.6,33.2v-14.4
		C506.7,321.1,497.5,318.7,497.5,302.3z"/>
	<path class="st2" d="M576.2,214v114.3c0,3.8,3.2,7.2,7.2,7.2V206.8C579.4,206.8,576.2,209.8,576.2,214z"/>
	<path class="st2" d="M643.5,321.1c-7.8,0-13-1.6-16-4.6c-2.6-2.8-3.8-7.6-3.8-14.4v-48.9c0-3.8-3.4-7.2-7.2-7.2s-7.2,3.4-7.2,7.2
		v48.9c0,10.4,2.6,18.8,7.6,24v-0.2c5.8,6.4,14.6,9.6,26.6,9.6c0.1,0,0.2,0,0.3,0v-14.4C643.7,321.1,643.6,321.1,643.5,321.1z"/>
	<path class="st2" d="M724.8,313.1c-5-5-7.6-12.2-7.6-21.2v-31.6H728v-14.4h-10.8v-28.4c0-3.8-3.2-7.2-7-7.2c-4.2,0-7.2,3.4-7.2,7.2
		v74.5c0,13.4,4,23.6,11.8,31.4c4.2,4,8.8,6.7,13.2,8.4v-16.1C726.9,315,725.8,314.1,724.8,313.1z"/>
	<path class="st2" d="M780.2,217.4c-4.6,0-8.6,3.8-8.6,8.6c0,4.8,4,8.8,8.6,8.8c0,0,0.1,0,0.1,0L780.2,217.4
		C780.3,217.4,780.3,217.4,780.2,217.4z"/>
	<path class="st2" d="M780.2,246c-3.8,0-6.8,3.4-6.8,7.2v75.1c0,4.2,3,7.2,6.8,7.2c0,0,0.1,0,0.1,0L780.2,246
		C780.3,246,780.3,246,780.2,246z"/>
	<path class="st2" d="M822.3,302.3v-23c0-16.4,9.2-18.8,19.4-18.8V246c-8.4,0-33.6,0-33.6,33.2v23c0,33.2,25.2,33.2,33.6,33.2v-14.4
		C831.5,321.1,822.3,318.7,822.3,302.3z"/>
	<path class="st2" d="M915.4,249.4c-1.2-2-3.4-3.4-6-3.4c-4.2,0-7.2,3.4-7.2,7.2v75.1c0,4.2,3,7.2,7.2,7.2c3.8,0,7.2-3,7.2-7.2
		v-63.5c5.7-3,12.2-4.3,20-4.4v-14.4C928.8,246.1,921.7,247.3,915.4,249.4z"/>
	<path class="st4" d="M432.4,218.2c8.2,0,16.4,1,20.2,1.6h-0.2c3.8,0.8,7.8-2,8.4-5.8c0.8-4.2-2-8-6.2-8.8c-4.8-0.6-13-1.8-22.2-1.8
		c-2,0-4,0.1-6,0.2v14.8C428.5,218.3,430.5,218.2,432.4,218.2z"/>
	<path class="st4" d="M428.4,256.8c-0.7-0.3-1.3-0.6-2-0.8v16.1c13.5,5.7,25.2,11.8,25.2,27c0,7.2-2.2,12.4-7,16
		c-4.6,3.1-11.1,4.9-18.2,5.4v14.9c9.9-0.6,19.6-3.1,27-8.5c8-6.4,12.8-16.2,12.8-27.8C466.3,274.1,445.7,264.1,428.4,256.8z"/>
	<path class="st4" d="M550.6,302.3v-23c0-33.2-25.2-33.2-33.6-33.2v14.4c10,0,19.4,2.4,19.4,18.8v23c0,16.4-9.4,18.8-19.4,18.8v14.4
		C525.3,335.5,550.6,335.3,550.6,302.3z"/>
	<path class="st4" d="M590.6,328.3V214c0-4.2-3-7.2-7.2-7.2v128.7C587.6,335.5,590.6,332.1,590.6,328.3z"/>
	<path class="st4" d="M671.1,335.5c4,0,7.2-3,7.2-7.2v-75.1c0-3.8-3.2-7.2-7.2-7.2c-4.2,0-7,3.4-7,7.2v63.7
		c-5.7,3-12.4,4.2-20.3,4.2v14.4c7.7,0,14.8-1.2,21.1-3.4C666.1,334.1,668.3,335.5,671.1,335.5z"/>
	<path class="st4" d="M753,328.1c0-4.2-3.4-7.2-7.2-7.2h-0.2c0,0-9.7,0.2-17.6-5.2v16.1c8.4,3.4,15.9,3.6,17.6,3.6
		C750,335.3,753,332.1,753,328.1z"/>
	<path class="st4" d="M738,260.3c4.2,0,7.2-3.4,7.2-7.2c0-3.8-3-7.2-7.2-7.2h-10v14.4H738z"/>
	<path class="st4" d="M789,226c0-4.8-4-8.5-8.7-8.6v17.4C785.1,234.8,789,230.8,789,226z"/>
	<path class="st4" d="M787.4,328.3v-75.1c0-3.8-2.8-7.1-7.1-7.2v89.5C784.7,335.5,787.4,332.5,787.4,328.3z"/>
	<path class="st4" d="M875.3,302.3v-23c0-33.2-25.2-33.2-33.6-33.2v14.4c10,0,19.4,2.4,19.4,18.8v23c0,16.4-9.4,18.8-19.4,18.8v14.4
		C850.1,335.5,875.3,335.3,875.3,302.3z"/>
	<path class="st4" d="M952.8,265.3c2.8,2.8,4.2,7.8,4.2,14.2v48.9c0,4.2,2.8,7.2,7,7.2c4,0,7-3,7-7.2v-48.9
		c0-10.2-2.6-18.6-7.4-23.8C958,249.4,949,246,937,246c-0.1,0-0.3,0-0.4,0v14.4c0.1,0,0.3,0,0.4,0
		C944.8,260.5,950.2,262.1,952.8,265.3z"/>
</g>
<path class="st3" d="M438.6,102.2c5.6-17.7,10.1-31.5,15.4-47.6c0,0.1,0,0.1,0.1,0.2v-41c0,0-0.1,0-0.1,0c-4.2,0-7.7,2.4-9.3,6.9
	l-50.6,155.4c-1.6,5,1.3,10.6,6.3,12.2c4.5,1.6,10.3-1.6,12.2-6.1c6.1-19.9,13.5-40.8,19.6-60.6h21.8v-19.3H438.6z"/>
<path class="st3" d="M554.3,129.7c0-27.8,13.4-36.6,25.4-39.1V71.3c-17.9,2.4-44.2,13.5-44.2,58.5c0,45,26.3,56.1,44.2,58.4v-19.4
	C567.7,166.4,554.3,157.5,554.3,129.7z"/>
<path class="st3" d="M678.4,74.7V29.4c0-5-4-9.5-9.5-9.5c-5,0-9.5,4.5-9.5,9.5v149.8c0,5.6,4.5,9.5,9.5,9.5c5.6,0,9.5-4,9.5-9.5
	V95.3c7.6-3.9,16.2-5.8,26.6-5.8V70.5C695.4,70.5,686.3,72.1,678.4,74.7z"/>
<path class="st3" d="M796.2,75.2c-4.5,2.1-6.9,7.1-5.6,11.6c2.4,5,7.7,7.9,12.4,5.8c5.9-2,13.5-3.1,22.1-3.1V70.5
	C814.2,70.6,804.5,72.1,796.2,75.2z"/>
<path class="st3" d="M824.8,169.7c-5,0-10.6-0.8-14.3-2.4c-7.4-3.4-11.1-9.5-11.1-19.1c0-5,1.1-8.2,4-11.1h-0.3
	c4.3-3.6,11.8-5.7,22.1-6v-19c-15.6,0.5-27.3,4.3-34.8,11.3c-6.6,6.1-10.1,14.3-10.1,24.9c0,17.7,7.4,29.9,22.5,36.3
	c6.6,2.6,14.3,4.2,22,4.2c0.1,0,0.3,0,0.4,0v-19.1C825.1,169.7,824.9,169.7,824.8,169.7z"/>
<path class="st3" d="M931.2,159.1c-6.6-6.6-10.1-16.2-10.1-28.1V89.2h14.3V70.2h-14.3V32.6c0-5-4.2-9.5-9.3-9.5
	c-5.6,0-9.5,4.5-9.5,9.5v98.5c0,17.7,5.3,31.2,15.6,41.6c5.5,5.3,11.6,8.8,17.5,11.2v-21.2C934,161.6,932.5,160.4,931.2,159.1z"/>
<path class="st5" d="M495.8,182.2v-0.3c0.8,4.2,5,6.9,9.3,6.9c5.8,0,11.1-7.1,8.7-13c-16.9-51.3-33.9-103.5-50.6-155.1
	c-1-4.2-5.2-6.8-9.2-6.9v41c6.8,20.2,9.7,29.5,15.8,47.4h-15.8v19.3h21.6C482.9,143,488.7,160.7,495.8,182.2z"/>
<path class="st5" d="M514.1,176.1l-0.3-0.3C513.8,176.1,514.1,176.1,514.1,176.1z"/>
<path class="st5" d="M588.5,89.8c13.5,0,21.2,2.7,21.4,2.9c5,2.1,11.4,0.3,13.2-4.8c2.1-4.8-0.8-10.1-4.8-12.2h0.3
	c-0.5-0.3-11.6-5-30.2-5c-2.5,0-5.5,0.1-8.8,0.6v19.4C582.8,90,585.8,89.8,588.5,89.8z"/>
<path class="st5" d="M617.3,184.3h0.3c4.8-2.7,7.7-8.5,5.3-13l0.3,0.3c-1.9-5-7.7-7.1-12.4-5l0.3-0.3c-2.4,0.8-10.3,3.4-22.5,3.4
	c-2.7,0-5.7-0.2-8.8-0.9v19.4c3.3,0.4,6.3,0.6,8.8,0.6C604.6,188.8,614.7,185.1,617.3,184.3z"/>
<path class="st5" d="M726.6,95.6c3.4,3.7,5.3,10.3,5.3,19.1v64.6c0,5.6,3.7,9.5,9.3,9.5c5.3,0,9.5-4,9.5-9.5v-64.6
	c0-13.8-3.4-24.9-9.8-31.8v0.3c-7.7-8.2-19.3-12.7-35.5-12.7c-0.1,0-0.3,0-0.4,0v19.1c0.1,0,0.3,0,0.4,0
	C715.8,89.5,722.9,91.6,726.6,95.6z"/>
<path class="st5" d="M860.5,188.8c5.6,0,9.5-4.5,9.5-9.5v-68.3c0-12.4-3.2-22.2-10.1-29.1c-7.4-7.4-18.8-11.4-33.9-11.4
	c-0.3,0-0.6,0-0.9,0v19.1c0.3,0,0.6,0,0.9,0c10.1,0,16.9,1.6,20.4,5.6c3.2,3.2,4.5,8.2,4.5,15.9v2.7c-4.2-0.5-9.5-1.1-15.1-1.3
	c-2.4-0.3-5.3-0.3-7.7-0.3c-1,0-2,0.1-3,0.1v19c1,0,2-0.1,3-0.1c1.9,0,3.7,0,6.1,0c6.1,0.3,12.2,1.3,16.7,2.1v27.5l-1.9,2.1
	c-5.5,4.2-14.6,6.8-24,6.9v19.1c9.4-0.1,18.5-2.1,26.6-5.8C853.1,186.4,856.6,188.8,860.5,188.8z"/>
<path class="st5" d="M968.5,179c0-5.6-4.5-9.5-9.5-9.5h-0.3c0,0-12.8,0.2-23.3-6.9v21.2c11.1,4.5,21,4.7,23.3,4.7
	C964.6,188.5,968.5,184.3,968.5,179z"/>
<path class="st5" d="M948.7,89.2c5.6,0,9.5-4.5,9.5-9.5c0-5-4-9.5-9.5-9.5h-13.2v19.1H948.7z"/>
</svg>
