<?xml version="1.0" encoding="utf-8"?>
<!-- Generator: Adobe Illustrator 19.0.0, SVG Export Plug-In . SVG Version: 6.00 Build 0)  -->
<svg version="1.1" id="Layer_1" xmlns="http://www.w3.org/2000/svg" xmlns:xlink="http://www.w3.org/1999/xlink" x="0px" y="0px"
	 viewBox="0 0 344.3 349.3" style="enable-background:new 0 0 344.3 349.3;" xml:space="preserve">
<style type="text/css">
	.st0{fill:none;}
	.st1{display:none;}
	.st2{fill:#666666;}
	.st3{fill:#0AB0DD;}
	.st4{fill:#313131;}
	.st5{fill:#0395C9;}
</style>
<path id="SVGID_x5F_1_x5F_" class="st0" d="M247.8,163c25.1,25.4,24.9,66.4-0.5,91.5c-25.4,25.1-66.4,24.9-91.5-0.5
	c-25.1-25.4-24.9-66.4,0.5-91.5C181.7,137.4,222.6,137.6,247.8,163z"/>
<text class="st1"><textPath  xlink:href="#SVGID_x5F_1_x5F_" startOffset="81.4453%"  style="display:inline;">
<tspan  style="font-family:'DesignioMedium'; font-size:28.7398px; letter-spacing:180;">Achat Solution</tspan></textPath>
</text>
<g>
	<path class="st2" d="M3,181.3c0,3.1,0.1,6.2,0.3,9.3c0.1,0.9,0.1,1.9,0.2,2.8c0.2,2.2,0.3,4.3,0.6,6.5c0.1,1,0.3,2,0.4,3
		c0.3,2.1,0.6,4.2,0.9,6.2c0.2,1,0.3,1.9,0.5,2.9c0.4,2.2,0.9,4.3,1.3,6.5c0.2,0.8,0.3,1.6,0.5,2.3c0.6,2.5,1.3,5,2,7.4
		c0.1,0.4,0.2,0.8,0.3,1.2c0.8,2.7,1.7,5.3,2.6,7.9c0.3,0.8,0.6,1.6,0.9,2.5c0.7,1.9,1.4,3.7,2.2,5.6c0.3,0.8,0.6,1.5,1,2.3
		c1.1,2.4,2.2,4.8,3.3,7.2c0,0.1,0.1,0.2,0.1,0.2c0,0.1,0.1,0.2,0.1,0.3c1.3,2.6,2.7,5.2,4.1,7.7c0.1,0.2,0.2,0.3,0.3,0.5
		c1.4,2.4,2.8,4.8,4.3,7.1c0.1,0.2,0.2,0.4,0.3,0.5c1.5,2.3,3,4.6,4.6,6.9c0.1,0.1,0.2,0.2,0.2,0.3c1.7,2.3,3.4,4.6,5.2,6.9
		c0,0,0,0,0,0l19-32.9l18.2-31.5L152.2,90L44.9,224.6c0,0,0,0,0,0c-2.3-6.6-4.1-13.5-5.3-20.5c-0.1-0.3-0.1-0.6-0.2-0.9
		c-0.6-3.3-1-6.6-1.3-10c0-0.5-0.1-1.1-0.1-1.6c-0.3-3.4-0.4-6.8-0.4-10.3c0-73.1,59.4-132.5,132.5-132.6V14C77.8,14.1,3,89,3,181.3
		z"/>
	<path class="st2" d="M135.2,268.9l-12.4,36.1l-8.2,24l-3,8.8h0c1.9,0.7,3.8,1.4,5.8,2c0.5,0.2,1,0.4,1.6,0.5c1,0.3,1.9,0.6,2.9,0.9
		c0.8,0.2,1.5,0.4,2.3,0.7c0.8,0.2,1.5,0.4,2.3,0.7c1.6,0.4,3.2,0.8,4.9,1.2c0.3,0.1,0.7,0.2,1,0.3c0.6,0.2,1.3,0.3,1.9,0.4
		c1.2,0.3,2.5,0.5,3.7,0.8c-11.9-5.8-18.2-12.8-18.2-12.8l14.8-20.5c0,0,15.4,14.9,35.6,15.8v-39.9
		C158.4,282.8,144.8,277.6,135.2,268.9z"/>
	<path class="st2" d="M159,199.5c3.5-0.8,7.2-1.2,11-1.4v-30.6L159,199.5z"/>
	<path class="st2" d="M150.3,241c0,9.3,8.6,14.5,19.8,19.5v-37.2C158.8,224.3,150.3,231.2,150.3,241z"/>
	<path class="st3" d="M150.4,112.1L80.5,274.4l-1.4,3.2l-2.4,5.5l-12.1,28c2.9,2.3,5.8,4.6,8.9,6.7c3,2.1,6,4.2,9.2,6.1
		c2.2,1.3,4.4,2.6,6.7,3.9c0.1,0,0.2,0.1,0.2,0.1c1.9,1.1,3.9,2.1,5.9,3.1c0.4,0.2,0.7,0.4,1.1,0.6c-0.4-0.2-0.7-0.4-1.1-0.6
		l2.6-7.5l8.2-24l0.6-1.6l16.6-48.4c-0.5-2.5-0.8-5.1-0.8-8c0-12.4,5.3-23.2,14.1-30.9l16.9-49.3l4.3-12.5l11.9-34.5V66.5
		L150.4,112.1z"/>
	<path class="st3" d="M122.8,241.4c0,2.8,0.3,5.5,0.8,8l13.4-38.9C128.1,218.3,122.8,229.1,122.8,241.4z"/>
	<path class="st4" d="M302.9,181.3c0,3.5-0.2,6.9-0.4,10.3c0,0.5-0.1,1.1-0.1,1.6c-0.3,3.4-0.7,6.7-1.3,10c-0.1,0.3-0.1,0.6-0.2,0.9
		c-1.2,7-3,13.9-5.3,20.5c0,0,0,0,0,0L188.4,90l75.6,130.9l18.2,31.5l19,32.9c0,0,0,0,0,0c1.8-2.2,3.5-4.5,5.2-6.9
		c0.1-0.1,0.2-0.2,0.2-0.3c1.6-2.3,3.2-4.5,4.6-6.9c0.1-0.2,0.2-0.4,0.3-0.5c1.5-2.3,2.9-4.7,4.3-7.1c0.1-0.2,0.2-0.3,0.3-0.5
		c1.4-2.5,2.8-5.1,4.1-7.7c0-0.1,0.1-0.2,0.1-0.3c0-0.1,0.1-0.2,0.1-0.2c1.2-2.4,2.3-4.8,3.3-7.2c0.3-0.8,0.6-1.5,1-2.3
		c0.8-1.8,1.5-3.7,2.2-5.6c0.3-0.8,0.6-1.6,0.9-2.5c0.9-2.6,1.8-5.2,2.6-7.9c0.1-0.4,0.2-0.8,0.3-1.2c0.7-2.4,1.4-4.9,2-7.4
		c0.2-0.8,0.4-1.5,0.5-2.3c0.5-2.2,0.9-4.3,1.3-6.5c0.2-0.9,0.3-1.9,0.5-2.9c0.4-2.1,0.7-4.1,0.9-6.2c0.1-1,0.3-2,0.4-3
		c0.2-2.2,0.4-4.3,0.6-6.5c0.1-0.9,0.2-1.9,0.2-2.8c0.2-3.1,0.3-6.2,0.3-9.3C337.5,88.9,262.6,14,170.3,14c-0.1,0-0.1,0-0.2,0v34.6
		c0.1,0,0.1,0,0.2,0C243.4,48.6,302.9,108.1,302.9,181.3z"/>
	<path class="st4" d="M193.6,309.7c0-10.4-10.6-16-23.6-21.8v39.9c0.6,0,1.2,0.1,1.8,0.1C183.3,327.9,193.6,322,193.6,309.7z"/>
	<path class="st4" d="M181.1,198.3l-10.8-31.5l-0.2,0.6V198c1-0.1,2-0.2,3.1-0.2C175.9,197.9,178.5,198.1,181.1,198.3z"/>
	<path class="st4" d="M190.9,226.9c-5.1-2.2-11.3-3.8-18-3.8c-1,0-1.9,0.1-2.8,0.2v37.2c12.9,5.7,29.1,10.9,39.7,21.4L190.9,226.9z"
		/>
	<path class="st4" d="M220.7,313.5c-1.3,13.4-8.5,25.2-20.6,32.3c0.6-0.1,1.2-0.2,1.8-0.3c1.5-0.3,3-0.6,4.6-0.9
		c0.6-0.1,1.3-0.3,1.9-0.4c0.3-0.1,0.7-0.2,1-0.2c1.6-0.4,3.3-0.8,4.9-1.2c0.8-0.2,1.5-0.4,2.3-0.6c0.8-0.2,1.6-0.4,2.3-0.7
		c1-0.3,2-0.6,2.9-0.9c0.5-0.2,1-0.3,1.5-0.5c2-0.7,3.9-1.3,5.8-2l-3-8.8L220.7,313.5z"/>
	<path class="st5" d="M182.3,148.7l4.3,12.5l14.5,42.1c11.1,4.7,16.8,10.6,16.8,10.6l-8,15l23.7,68.8l0.6,1.7l8.2,24l2.6,7.5v0
		c2-1,4-2,5.9-3.1c0.1,0,0.1-0.1,0.2-0.1c2.3-1.3,4.5-2.6,6.7-3.9c3.1-1.9,6.2-4,9.2-6.1c3-2.1,6-4.4,8.9-6.7l-12.1-28l-2.4-5.5
		l-1.4-3.2l-69.9-162.2L170.3,66l-0.2,0.5v47.7l0.2-0.6L182.3,148.7z"/>
	<path class="st5" d="M201.1,203.3l8.8,25.7l8-15C217.9,213.9,212.2,208,201.1,203.3z"/>
</g>
</svg>
